<svg t="1676182207191" class="icon" viewBox="0 0 1024 1024" version="1.1" xmlns="http://www.w3.org/2000/svg" p-id="1160" width="200" height="200"><path d="M288 288 160 288c-17.664 0-32 14.336-32 32l0 544c0 17.696 14.336 32 32 32l128 0c17.664 0 32-14.304 32-32L320 320C320 302.336 305.664 288 288 288z" fill="#ffffff" p-id="1161"></path><path d="M576 480l-128 0c-17.664 0-32 14.336-32 32l0 352c0 17.696 14.336 32 32 32l128 0c17.696 0 32-14.304 32-32L608 512C608 494.336 593.696 480 576 480z" fill="#fff" p-id="1162"></path><path d="M864 128l-128 0c-17.696 0-32 14.336-32 32l0 704c0 17.696 14.304 32 32 32l128 0c17.696 0 32-14.304 32-32L896 160C896 142.336 881.696 128 864 128z" fill="#fff" p-id="1163"></path></svg>