<svg t="1675321723988" class="icon" viewBox="0 0 1024 1024" version="1.1" xmlns="http://www.w3.org/2000/svg" p-id="2006" width="200" height="200"><path d="M180.813576 145.842424a31.030303 31.030303 0 0 1 43.845818 2.110061l620.606061 682.666667a31.030303 31.030303 0 1 1-45.924849 41.735757l-620.606061-682.666667A31.030303 31.030303 0 0 1 180.813576 145.842424z" fill="#ffffff" p-id="2007"></path><path d="M430.607515 374.473697a31.030303 31.030303 0 0 1-2.07903 43.814788 124.121212 124.121212 0 0 0 166.97406 183.699394 31.030303 31.030303 0 0 1 41.735758 45.924848A186.181818 186.181818 0 0 1 386.761697 372.363636a31.030303 31.030303 0 0 1 43.845818 2.110061z" fill="#ffffff" p-id="2008"></path><path d="M330.193455 265.712485a31.030303 31.030303 0 0 1-13.653334 41.704727c-73.728 37.329455-126.572606 91.291152-161.171394 136.409212a506.414545 506.414545 0 0 0-43.101091 66.311758c3.661576 6.826667 8.905697 16.135758 15.825455 27.089454a524.877576 524.877576 0 0 0 72.300606 90.608485c65.629091 65.660121 166.756848 130.513455 311.606303 130.513455h0.248242a426.759758 426.759758 0 0 0 195.242667-45.521455 31.030303 31.030303 0 0 1 27.927273 55.420121 488.820364 488.820364 0 0 1-223.542303 52.16194c-165.391515-0.03103-281.444848-74.78303-355.390061-148.697212a586.938182 586.938182 0 0 1-80.92703-101.407031 495.150545 495.150545 0 0 1-24.482909-43.566545 210.199273 210.199273 0 0 1-1.303273-2.792727l-0.372364-0.775758-0.124121-0.279273v-0.093091h-0.03103c0-0.03103 0-0.062061 28.330667-12.660363l-28.361697-12.629334 0.06206-0.06206 0.062061-0.155152 0.217212-0.496484a155.834182 155.834182 0 0 1 3.444364-7.13697c2.358303-4.747636 5.864727-11.419152 10.519272-19.611152 9.309091-16.35297 23.365818-38.849939 42.604606-63.953454C144.477091 356.041697 204.086303 294.787879 288.519758 252.028121a31.030303 31.030303 0 0 1 41.673697 13.653334zM77.575758 510.138182l-28.361697-12.598303a31.030303 31.030303 0 0 0 0 25.196606l28.361697-12.598303zM426.697697 206.754909c28.206545-4.654545 56.754424-6.981818 85.333333-6.950788 165.453576 0 281.506909 74.78303 355.483152 148.759273a587.310545 587.310545 0 0 1 80.92703 101.40703 494.840242 494.840242 0 0 1 24.482909 43.566546l1.303273 2.792727 0.372364 0.806788 0.124121 0.248242 0.03103 0.124121-28.330667 12.629334-28.361697-12.598303-0.217212 0.496485-1.08606 2.296242a280.327758 280.327758 0 0 1-4.871758 9.495273l-0.155151 0.310303c-3.661576-6.826667-8.905697-16.135758-15.825455-27.089455a525.094788 525.094788 0 0 0-72.300606-90.608485C758.008242 326.749091 656.849455 261.864727 512 261.864727h-0.062061c-25.134545-0.03103-50.269091 2.01697-75.093333 6.11297a31.030303 31.030303 0 0 1-10.146909-61.222788zM946.424242 510.138182l28.361697 12.598303a31.030303 31.030303 0 0 0 0-25.196606l-28.361697 12.598303z m-34.691878 0c-4.437333 8.285091-11.201939 20.169697-20.44897 34.319515a520.657455 520.657455 0 0 1-87.319273 101.996606 31.030303 31.030303 0 1 0 41.394424 46.235152 582.62497 582.62497 0 0 0 97.869576-114.253576c10.488242-16.073697 18.245818-29.696 23.458909-39.439515a348.563394 348.563394 0 0 0 7.447273-14.832485l0.434424-0.930909 0.124121-0.310303 0.062061-0.093091v-0.093091l-28.330667-12.598303c-28.361697 12.598303-28.361697 12.629333-28.330666 12.629333l-0.186182-0.403394a263.571394 263.571394 0 0 0-6.17503-12.225939z" fill="#ffffff" p-id="2009"></path><path d="M510.727758 351.883636a31.030303 31.030303 0 0 1 36.305454-24.60703 186.274909 186.274909 0 0 1 150.341818 165.360485 31.030303 31.030303 0 0 1-61.781333 5.833697 124.214303 124.214303 0 0 0-100.227879-110.250667 31.030303 31.030303 0 0 1-24.63806-36.305454z" fill="#ffffff" p-id="2010"></path></svg>