<svg t="1676268195405" class="icon" viewBox="0 0 1024 1024" version="1.1" xmlns="http://www.w3.org/2000/svg" p-id="4086" width="200" height="200"><path d="M0 0h1024v1024H0z" fill="#333333" opacity=".01" p-id="4087"></path><path d="M921.6 768a51.2 51.2 0 0 1 0 102.4H102.4a51.2 51.2 0 0 1 0-102.4h819.2zM66.2016 394.5984a51.2 51.2 0 0 1 72.3968 0l81.2032 81.2032a51.2 51.2 0 0 1 0 72.3968l-81.2032 81.2032A51.2 51.2 0 0 1 51.2 593.2032V430.7968a51.2 51.2 0 0 1 15.0016-36.1984zM921.6 460.8a51.2 51.2 0 0 1 0 102.4H409.6a51.2 51.2 0 0 1 0-102.4h512z m0-307.2a51.2 51.2 0 0 1 0 102.4H102.4a51.2 51.2 0 1 1 0-102.4h819.2z" fill="#333333" p-id="4088"></path></svg>