<svg t="1676268131524" class="icon" viewBox="0 0 1024 1024" version="1.1" xmlns="http://www.w3.org/2000/svg" p-id="3822" width="200" height="200"><path d="M0 0h1024v1024H0z" fill="#333333" opacity=".01" p-id="3823"></path><path d="M921.6 768a51.2 51.2 0 0 1 0 102.4H102.4a51.2 51.2 0 0 1 0-102.4h819.2zM240.9984 394.5984A51.2 51.2 0 0 1 256 430.7968v162.4064a51.2 51.2 0 0 1-87.3984 36.1984l-81.2032-81.2032a51.2 51.2 0 0 1 0-72.3968l81.2032-81.2032a51.2 51.2 0 0 1 72.3968 0zM921.6 460.8a51.2 51.2 0 0 1 0 102.4H409.6a51.2 51.2 0 0 1 0-102.4h512z m0-307.2a51.2 51.2 0 0 1 0 102.4H102.4a51.2 51.2 0 1 1 0-102.4h819.2z" fill="#333333" p-id="3824"></path></svg>