<svg t="1676182967311" class="icon" viewBox="0 0 1024 1024" version="1.1" xmlns="http://www.w3.org/2000/svg" p-id="2322" width="200" height="200"><path d="M826.026667 472.021333a32 32 0 0 1-32-32V135.936A7.978667 7.978667 0 0 0 785.962667 128H135.978667A8.021333 8.021333 0 0 0 128 136.021333v752c0 4.394667 3.584 7.978667 8.021333 7.978667H424.96a32 32 0 0 1 0 64H96a32 32 0 0 1-32-32V96a32 32 0 0 1 32-32h730.026667a32 32 0 0 1 32 32v344.021333a32 32 0 0 1-32 32zM210.944 269.952h471.04a32 32 0 0 1 0 64H210.944a32 32 0 0 1 0-64z m4.992 205.994667h212.053333a32 32 0 0 1 0 64h-212.053333a32 32 0 0 1 0-64z m0 205.994666h212.053333a32 32 0 0 1 0 64h-212.053333a32 32 0 0 1 0-64z m304-205.994666h44.032a32 32 0 0 1 0 64h-43.989333a32 32 0 0 1 0-64z m21.930667 217.685333c4.352-21.461333 12.288-42.069333 23.466666-60.928a40.533333 40.533333 0 0 0 54.101334-59.306667 196.010667 196.010667 0 0 1 76.032-33.493333 40.533333 40.533333 0 0 0 79.957333 0.213333c27.818667 5.802667 53.504 17.493333 75.690667 33.706667a40.533333 40.533333 0 0 0 53.76 59.392c11.050667 18.773333 18.901333 39.253333 23.210666 60.586667a40.533333 40.533333 0 0 0-0.213333 79.232 195.84 195.84 0 0 1-26.581333 65.536 40.533333 40.533333 0 0 0-53.888 56.149333 195.968 195.968 0 0 1-72.362667 31.146667 40.533333 40.533333 0 0 0-79.232 0.213333 195.968 195.968 0 0 1-72.576-30.848 40.533333 40.533333 0 0 0-54.314667-56.234667 195.84 195.84 0 0 1-26.837333-65.749333 40.533333 40.533333 0 0 0-0.213333-79.616z m193.578666 106.325333a66.517333 66.517333 0 1 0 0-132.992 66.517333 66.517333 0 0 0 0 132.992z" fill="#ffffff" p-id="2323"></path></svg>