<svg t="1676183265916" class="icon" viewBox="0 0 1024 1024" version="1.1" xmlns="http://www.w3.org/2000/svg" p-id="2502" width="200" height="200"><path d="M644.928 847.872c-0.768 0.704-2.304 0.704-3.936 0.704a17.184 17.184 0 0 1-8.608-2.336l-51.712-27.232-51.712 27.232a17.152 17.152 0 0 1-8.672 2.336 19.2 19.2 0 0 1-11.712-3.872 18.656 18.656 0 0 1-7.104-18.72l9.408-56.8-41.536-41.248a18.912 18.912 0 0 1-5.536-18.72 19.424 19.424 0 0 1 15.68-13.216l58.016-8.576 25.856-52.192c3.2-6.24 10.24-10.08 17.312-10.08 7.008 0 14.112 3.84 17.184 10.08l14.88 29.632c-11.712-35.104-25.056-68.576-41.472-88.8-24.32-40.512-64.32-55.296-95.648-60a13.024 13.024 0 0 0-12.544 4.672l-31.328 43.584-34.496-46.688 24.288 81.056v6.176l-25.056 114.496V720.128l-27.424-115.264c0-2.368 0-4.672 0.8-6.176l25.888-82.624-36.064 49.792-31.36-42.048c-3.136-3.84-8.64-6.176-13.344-4.672-25.056 6.208-57.952 21.088-81.472 53.76-0.768 1.632-1.6 2.368-2.368 3.136 0 0.768-0.768 1.536-1.568 1.536-1.6 3.168-3.104 5.536-4.704 8.608h0.736c-3.136 6.176-7.04 14.016-10.176 21.76 0-0.672-0.768-0.672-0.768-0.672-30.592 71.52-58.016 214.848-58.016 228.096h1.536c0 14.016 5.504 42.848 50.176 42.048h384.064s40 0.8 52.512-29.536M226.432 328.128c-0.16-95.904 75.232-170.496 168.128-170.496 92.96 0 168.32 74.624 168.32 166.656s-75.36 166.656-168.32 166.656c-92.896-0.032-168.288-74.624-168.128-162.816" fill="#ffffff" p-id="2503"></path><path d="M573.728 655.648c0.768-2.336 3.872-3.904 6.24-3.904 3.168 0 5.504 1.568 6.336 3.904l24.288 48.32 53.312 7.808c2.304 0 4.704 2.272 5.472 4.672 0.736 2.304 0 5.44-1.568 6.976l-38.464 37.408 8.672 52.928c0.736 2.368-0.768 5.568-2.336 7.104a9.056 9.056 0 0 1-7.776 0.704l-47.904-24.864-47.776 24.864a9.504 9.504 0 0 1-7.872-0.704c-1.536-1.536-3.2-3.936-2.336-7.104l8.576-52.928-38.368-37.408c-1.632-1.536-2.368-4.672-1.632-6.976 0.864-2.368 3.2-4.672 5.504-4.672l53.312-7.808 24.32-48.32M786.816 655.648a8.16 8.16 0 0 1 7.008-3.904c2.4 0 4.736 1.568 6.272 3.904l23.552 48.32 53.248 7.808c3.232 0 5.504 1.536 6.336 4.672 0.704 2.304 0 5.44-2.368 6.976l-38.464 37.408 9.44 52.928c0 2.368-0.736 5.568-3.2 7.104-2.272 1.536-4.672 1.536-7.712 0.704l-47.136-24.864-47.744 24.864a9.312 9.312 0 0 1-7.808-0.704c-2.464-1.536-3.2-4.704-3.2-7.104l9.408-52.928-38.368-37.408c-2.368-1.536-3.168-4.672-2.368-6.976 0.768-3.136 3.136-4.672 6.272-4.672l53.248-7.808 23.584-48.32M674.592 473.056c0.832-2.336 3.968-3.872 6.304-3.872 3.104 0 5.504 1.536 6.272 4.672l24.32 47.488 53.312 7.808c2.336 0 4.672 2.336 5.472 4.672a8.96 8.96 0 0 1-1.6 7.744l-38.4 37.408 8.64 52.256c0.832 3.072-0.768 5.344-2.336 6.88a6.08 6.08 0 0 1-7.84 0.832l-47.808-24.96-47.872 24.96c-2.304 1.536-5.44 1.536-7.008-0.832-2.368-1.536-3.936-3.808-3.168-6.88l8.672-52.256-38.496-37.408c-1.536-2.304-2.336-4.672-1.536-7.744 0.736-2.336 3.136-4.672 5.44-4.672l53.344-7.808 24.288-48.288" fill="#ffffff" p-id="2504"></path></svg>